<?xml version="1.0" encoding="UTF-8"?>
<svg id="g-Map2_ClosingClubs-Zeichenfl_che_1-interactions-img" data-name="Ebene 1" xmlns="http://www.w3.org/2000/svg" baseProfile="tiny" version="1.2" viewBox="0 0 600 549">
  <g id="Clubs">
    <path d="M340.569,246.673c.002.812-.168,1.615-.499,2.356-.874,1.95-5.07,7.582-5.07,7.582,0,0-4.181-5.632-5.07-7.582-.332-.741-.502-1.544-.499-2.356-.026-3.102,2.467-5.637,5.569-5.663h0c3.102.026,5.595,2.561,5.569,5.662h0Z" fill="#8401cb" stroke="#fff" stroke-miterlimit="10" stroke-width=".75"/>
    <path d="M339.569,223.673c.002.812-.168,1.615-.499,2.356-.874,1.95-5.07,7.582-5.07,7.582,0,0-4.181-5.632-5.07-7.582-.332-.741-.502-1.544-.499-2.356-.026-3.102,2.467-5.637,5.569-5.663h0c3.102.026,5.595,2.561,5.569,5.662h0Z" fill="#8401cb" stroke="#fff" stroke-miterlimit="10" stroke-width=".75"/>
    <path d="M330.569,239.673c.002.812-.168,1.615-.499,2.356-.874,1.95-5.07,7.582-5.07,7.582,0,0-4.181-5.632-5.07-7.582-.332-.741-.502-1.544-.499-2.356-.026-3.102,2.467-5.637,5.569-5.663h0c3.102.026,5.595,2.561,5.569,5.662h0Z" fill="#8401cb" stroke="#fff" stroke-miterlimit="10" stroke-width=".75"/>
    <path d="M331.569,241.673c.002.812-.168,1.615-.499,2.356-.874,1.95-5.07,7.582-5.07,7.582,0,0-4.181-5.632-5.07-7.582-.332-.741-.502-1.544-.499-2.356-.026-3.102,2.467-5.637,5.569-5.663h0c3.102.026,5.595,2.561,5.569,5.662h0Z" fill="#8401cb" stroke="#fff" stroke-miterlimit="10" stroke-width=".75"/>
    <path d="M341.569,237.673c.002.812-.168,1.615-.499,2.356-.874,1.95-5.07,7.582-5.07,7.582,0,0-4.181-5.632-5.07-7.582-.332-.741-.502-1.544-.499-2.356-.026-3.102,2.467-5.637,5.569-5.663h0c3.102.026,5.595,2.561,5.569,5.662h0Z" fill="#8401cb" stroke="#fff" stroke-miterlimit="10" stroke-width=".75"/>
    <path d="M290.569,212.673c.002.812-.168,1.615-.499,2.356-.874,1.95-5.07,7.582-5.07,7.582,0,0-4.181-5.632-5.07-7.582-.332-.741-.502-1.544-.499-2.356-.026-3.102,2.467-5.637,5.569-5.663h0c3.102.026,5.595,2.561,5.569,5.662h0Z" fill="#8401cb" stroke="#fff" stroke-miterlimit="10" stroke-width=".75"/>
    <path d="M300.569,249.673c.002.812-.168,1.615-.499,2.356-.874,1.95-5.07,7.582-5.07,7.582,0,0-4.181-5.632-5.07-7.582-.332-.741-.502-1.544-.499-2.356-.026-3.102,2.467-5.637,5.569-5.663h0c3.102.026,5.595,2.561,5.569,5.662h0Z" fill="#8401cb" stroke="#fff" stroke-miterlimit="10" stroke-width=".75"/>
    <path d="M321.569,251.673c.002.812-.168,1.615-.499,2.356-.874,1.95-5.07,7.582-5.07,7.582,0,0-4.181-5.632-5.07-7.582-.332-.741-.502-1.544-.499-2.356-.026-3.102,2.467-5.637,5.569-5.663h0c3.102.026,5.595,2.561,5.569,5.662h0Z" fill="#8401cb" stroke="#fff" stroke-miterlimit="10" stroke-width=".75"/>
    <path d="M252.569,202.673c.002.812-.168,1.615-.499,2.356-.874,1.95-5.07,7.582-5.07,7.582,0,0-4.181-5.632-5.07-7.582-.332-.741-.502-1.544-.499-2.356-.026-3.102,2.467-5.637,5.569-5.663h0c3.102.026,5.595,2.561,5.569,5.662h0Z" fill="#8401cb" stroke="#fff" stroke-miterlimit="10" stroke-width=".75"/>
    <path d="M270.569,260.673c.002.812-.168,1.615-.499,2.356-.874,1.95-5.07,7.582-5.07,7.582,0,0-4.181-5.632-5.07-7.582-.332-.741-.502-1.544-.499-2.356-.026-3.102,2.467-5.637,5.569-5.663h0c3.102.026,5.595,2.561,5.569,5.662h0Z" fill="#8401cb" stroke="#fff" stroke-miterlimit="10" stroke-width=".75"/>
    <path d="M282.569,200.673c.002.812-.168,1.615-.499,2.356-.874,1.95-5.07,7.582-5.07,7.582,0,0-4.181-5.632-5.07-7.582-.332-.741-.502-1.544-.499-2.356-.026-3.102,2.467-5.637,5.569-5.663h0c3.102.026,5.595,2.561,5.569,5.662h0Z" fill="#8401cb" stroke="#fff" stroke-miterlimit="10" stroke-width=".75"/>
    <path d="M330.569,240.673c.002.812-.168,1.615-.499,2.356-.874,1.95-5.07,7.582-5.07,7.582,0,0-4.181-5.632-5.07-7.582-.332-.741-.502-1.544-.499-2.356-.026-3.102,2.467-5.637,5.569-5.663h0c3.102.026,5.595,2.561,5.569,5.662h0Z" fill="#8401cb" stroke="#fff" stroke-miterlimit="10" stroke-width=".75"/>
    <path d="M305.569,235.673c.002.812-.168,1.615-.499,2.356-.874,1.95-5.07,7.582-5.07,7.582,0,0-4.181-5.632-5.07-7.582-.332-.741-.502-1.544-.499-2.356-.026-3.102,2.467-5.637,5.569-5.663h0c3.102.026,5.595,2.561,5.569,5.662h0Z" fill="#8401cb" stroke="#fff" stroke-miterlimit="10" stroke-width=".75"/>
    <path d="M305.569,235.673c.002.812-.168,1.615-.499,2.356-.874,1.95-5.07,7.582-5.07,7.582,0,0-4.181-5.632-5.07-7.582-.332-.741-.502-1.544-.499-2.356-.026-3.102,2.467-5.637,5.569-5.663h0c3.102.026,5.595,2.561,5.569,5.662h0Z" fill="#8401cb" stroke="#fff" stroke-miterlimit="10" stroke-width=".75"/>
    <path d="M327.569,239.673c.002.812-.168,1.615-.499,2.356-.874,1.95-5.07,7.582-5.07,7.582,0,0-4.181-5.632-5.07-7.582-.332-.741-.502-1.544-.499-2.356-.026-3.102,2.467-5.637,5.569-5.663h0c3.102.026,5.595,2.561,5.569,5.662h0Z" fill="#8401cb" stroke="#fff" stroke-miterlimit="10" stroke-width=".75"/>
    <path d="M279.569,204.673c.002.812-.168,1.615-.499,2.356-.874,1.95-5.07,7.582-5.07,7.582,0,0-4.181-5.632-5.07-7.582-.332-.741-.502-1.544-.499-2.356-.026-3.102,2.467-5.637,5.569-5.663h0c3.102.026,5.595,2.561,5.569,5.662h0Z" fill="#8401cb" stroke="#fff" stroke-miterlimit="10" stroke-width=".75"/>
    <path d="M299.569,232.673c.002.812-.168,1.615-.499,2.356-.874,1.95-5.07,7.582-5.07,7.582,0,0-4.181-5.632-5.07-7.582-.332-.741-.502-1.544-.499-2.356-.026-3.102,2.467-5.637,5.569-5.663h0c3.102.026,5.595,2.561,5.569,5.662h0Z" fill="#8401cb" stroke="#fff" stroke-miterlimit="10" stroke-width=".75"/>
    <path d="M290.569,186.673c.002.812-.168,1.615-.499,2.356-.874,1.95-5.07,7.582-5.07,7.582,0,0-4.181-5.632-5.07-7.582-.332-.741-.502-1.544-.499-2.356-.026-3.102,2.467-5.637,5.569-5.663h0c3.102.026,5.595,2.561,5.569,5.662h0Z" fill="#8401cb" stroke="#fff" stroke-miterlimit="10" stroke-width=".75"/>
    <path d="M283.569,210.673c.002.812-.168,1.615-.499,2.356-.874,1.95-5.07,7.582-5.07,7.582,0,0-4.181-5.632-5.07-7.582-.332-.741-.502-1.544-.499-2.356-.026-3.102,2.467-5.637,5.569-5.663h0c3.102.026,5.595,2.561,5.569,5.662h0Z" fill="#8401cb" stroke="#fff" stroke-miterlimit="10" stroke-width=".75"/>
    <path d="M307.569,275.673c.002.812-.168,1.615-.499,2.356-.874,1.95-5.07,7.582-5.07,7.582,0,0-4.181-5.632-5.07-7.582-.332-.741-.502-1.544-.499-2.356-.026-3.102,2.467-5.637,5.569-5.663h0c3.102.026,5.595,2.561,5.569,5.662h0Z" fill="#8401cb" stroke="#fff" stroke-miterlimit="10" stroke-width=".75"/>
    <path d="M271.569,226.673c.002.812-.168,1.615-.499,2.356-.874,1.95-5.07,7.582-5.07,7.582,0,0-4.181-5.632-5.07-7.582-.332-.741-.502-1.544-.499-2.356-.026-3.102,2.467-5.637,5.569-5.663h0c3.102.026,5.595,2.561,5.569,5.662h0Z" fill="#8401cb" stroke="#fff" stroke-miterlimit="10" stroke-width=".75"/>
    <path d="M281.569,206.673c.002.812-.168,1.615-.499,2.356-.874,1.95-5.07,7.582-5.07,7.582,0,0-4.181-5.632-5.07-7.582-.332-.741-.502-1.544-.499-2.356-.026-3.102,2.467-5.637,5.569-5.663h0c3.102.026,5.595,2.561,5.569,5.662h0Z" fill="#8401cb" stroke="#fff" stroke-miterlimit="10" stroke-width=".75"/>
    <path d="M316.569,214.673c.002.812-.168,1.615-.499,2.356-.874,1.95-5.07,7.582-5.07,7.582,0,0-4.181-5.632-5.07-7.582-.332-.741-.502-1.544-.499-2.356-.026-3.102,2.467-5.637,5.569-5.663h0c3.102.026,5.595,2.561,5.569,5.662h0Z" fill="#8401cb" stroke="#fff" stroke-miterlimit="10" stroke-width=".75"/>
    <path d="M256.569,249.673c.002.812-.168,1.615-.499,2.356-.874,1.95-5.07,7.582-5.07,7.582,0,0-4.181-5.632-5.07-7.582-.332-.741-.502-1.544-.499-2.356-.026-3.102,2.467-5.637,5.569-5.663h0c3.102.026,5.595,2.561,5.569,5.662h0Z" fill="#8401cb" stroke="#fff" stroke-miterlimit="10" stroke-width=".75"/>
    <path d="M317.569,247.673c.002.812-.168,1.615-.499,2.356-.874,1.95-5.07,7.582-5.07,7.582,0,0-4.181-5.632-5.07-7.582-.332-.741-.502-1.544-.499-2.356-.026-3.102,2.467-5.637,5.569-5.663h0c3.102.026,5.595,2.561,5.569,5.662h0Z" fill="#8401cb" stroke="#fff" stroke-miterlimit="10" stroke-width=".75"/>
    <path d="M314.569,233.673c.002.812-.168,1.615-.499,2.356-.874,1.95-5.07,7.582-5.07,7.582,0,0-4.181-5.632-5.07-7.582-.332-.741-.502-1.544-.499-2.356-.026-3.102,2.467-5.637,5.569-5.663h0c3.102.026,5.595,2.561,5.569,5.662h0Z" fill="#8401cb" stroke="#fff" stroke-miterlimit="10" stroke-width=".75"/>
    <path d="M282.569,209.673c.002.812-.168,1.615-.499,2.356-.874,1.95-5.07,7.582-5.07,7.582,0,0-4.181-5.632-5.07-7.582-.332-.741-.502-1.544-.499-2.356-.026-3.102,2.467-5.637,5.569-5.663h0c3.102.026,5.595,2.561,5.569,5.662h0Z" fill="#8401cb" stroke="#fff" stroke-miterlimit="10" stroke-width=".75"/>
    <path d="M282.569,209.673c.002.812-.168,1.615-.499,2.356-.874,1.95-5.07,7.582-5.07,7.582,0,0-4.181-5.632-5.07-7.582-.332-.741-.502-1.544-.499-2.356-.026-3.102,2.467-5.637,5.569-5.663h0c3.102.026,5.595,2.561,5.569,5.662h0Z" fill="#8401cb" stroke="#fff" stroke-miterlimit="10" stroke-width=".75"/>
    <path d="M286.569,216.673c.002.812-.168,1.615-.499,2.356-.874,1.95-5.07,7.582-5.07,7.582,0,0-4.181-5.632-5.07-7.582-.332-.741-.502-1.544-.499-2.356-.026-3.102,2.467-5.637,5.569-5.663h0c3.102.026,5.595,2.561,5.569,5.662h0Z" fill="#8401cb" stroke="#fff" stroke-miterlimit="10" stroke-width=".75"/>
    <path d="M272.569,205.673c.002.812-.168,1.615-.499,2.356-.874,1.95-5.07,7.582-5.07,7.582,0,0-4.181-5.632-5.07-7.582-.332-.741-.502-1.544-.499-2.356-.026-3.102,2.467-5.637,5.569-5.663h0c3.102.026,5.595,2.561,5.569,5.662h0Z" fill="#8401cb" stroke="#fff" stroke-miterlimit="10" stroke-width=".75"/>
    <path d="M298.569,229.673c.002.812-.168,1.615-.499,2.356-.874,1.95-5.07,7.582-5.07,7.582,0,0-4.181-5.632-5.07-7.582-.332-.741-.502-1.544-.499-2.356-.026-3.102,2.467-5.637,5.569-5.663h0c3.102.026,5.595,2.561,5.569,5.662h0Z" fill="#8401cb" stroke="#fff" stroke-miterlimit="10" stroke-width=".75"/>
    <path d="M283.569,215.673c.002.812-.168,1.615-.499,2.356-.874,1.95-5.07,7.582-5.07,7.582,0,0-4.181-5.632-5.07-7.582-.332-.741-.502-1.544-.499-2.356-.026-3.102,2.467-5.637,5.569-5.663h0c3.102.026,5.595,2.561,5.569,5.662h0Z" fill="#8401cb" stroke="#fff" stroke-miterlimit="10" stroke-width=".75"/>
    <path d="M268.569,234.673c.002.812-.168,1.615-.499,2.356-.874,1.95-5.07,7.582-5.07,7.582,0,0-4.181-5.632-5.07-7.582-.332-.741-.502-1.544-.499-2.356-.026-3.102,2.467-5.637,5.569-5.663h0c3.102.026,5.595,2.561,5.569,5.662h0Z" fill="#8401cb" stroke="#fff" stroke-miterlimit="10" stroke-width=".75"/>
    <path d="M267.569,216.673c.002.812-.168,1.615-.499,2.356-.874,1.95-5.07,7.582-5.07,7.582,0,0-4.181-5.632-5.07-7.582-.332-.741-.502-1.544-.499-2.356-.026-3.102,2.467-5.637,5.569-5.663h0c3.102.026,5.595,2.561,5.569,5.662h0Z" fill="#8401cb" stroke="#fff" stroke-miterlimit="10" stroke-width=".75"/>
    <path d="M281.569,207.673c.002.812-.168,1.615-.499,2.356-.874,1.95-5.07,7.582-5.07,7.582,0,0-4.181-5.632-5.07-7.582-.332-.741-.502-1.544-.499-2.356-.026-3.102,2.467-5.637,5.569-5.663h0c3.102.026,5.595,2.561,5.569,5.662h0Z" fill="#8401cb" stroke="#fff" stroke-miterlimit="10" stroke-width=".75"/>
    <path d="M294.569,233.673c.002.812-.168,1.615-.499,2.356-.874,1.95-5.07,7.582-5.07,7.582,0,0-4.181-5.632-5.07-7.582-.332-.741-.502-1.544-.499-2.356-.026-3.102,2.467-5.637,5.569-5.663h0c3.102.026,5.595,2.561,5.569,5.662h0Z" fill="#8401cb" stroke="#fff" stroke-miterlimit="10" stroke-width=".75"/>
    <path d="M297.569,234.673c.002.812-.168,1.615-.499,2.356-.874,1.95-5.07,7.582-5.07,7.582,0,0-4.181-5.632-5.07-7.582-.332-.741-.502-1.544-.499-2.356-.026-3.102,2.467-5.637,5.569-5.663h0c3.102.026,5.595,2.561,5.569,5.662h0Z" fill="#8401cb" stroke="#fff" stroke-miterlimit="10" stroke-width=".75"/>
    <path d="M284.569,231.673c.002.812-.168,1.615-.499,2.356-.874,1.95-5.07,7.582-5.07,7.582,0,0-4.181-5.632-5.07-7.582-.332-.741-.502-1.544-.499-2.356-.026-3.102,2.467-5.637,5.569-5.663h0c3.102.026,5.595,2.561,5.569,5.662h0Z" fill="#8401cb" stroke="#fff" stroke-miterlimit="10" stroke-width=".75"/>
    <path d="M270.569,233.673c.002.812-.168,1.615-.499,2.356-.874,1.95-5.07,7.582-5.07,7.582,0,0-4.181-5.632-5.07-7.582-.332-.741-.502-1.544-.499-2.356-.026-3.102,2.467-5.637,5.569-5.663h0c3.102.026,5.595,2.561,5.569,5.662h0Z" fill="#8401cb" stroke="#fff" stroke-miterlimit="10" stroke-width=".75"/>
    <path d="M264.569,195.673c.002.812-.168,1.615-.499,2.356-.874,1.95-5.07,7.582-5.07,7.582,0,0-4.181-5.632-5.07-7.582-.332-.741-.502-1.544-.499-2.356-.026-3.102,2.467-5.637,5.569-5.663h0c3.102.026,5.595,2.561,5.569,5.662h0Z" fill="#8401cb" stroke="#fff" stroke-miterlimit="10" stroke-width=".75"/>
    <rect x="443.031" y="502" width="156.969" height="14" fill="#fff" fill-opacity=".73" stroke="#fff" stroke-miterlimit="10" stroke-width=".75"/>
  </g>
<style>
#g-Map2_ClosingClubs-Zeichenfl_che_1-interactions-img rect, #g-Map2_ClosingClubs-Zeichenfl_che_1-interactions-img circle, #g-Map2_ClosingClubs-Zeichenfl_che_1-interactions-img path, #g-Map2_ClosingClubs-Zeichenfl_che_1-interactions-img line, #g-Map2_ClosingClubs-Zeichenfl_che_1-interactions-img polyline, #g-Map2_ClosingClubs-Zeichenfl_che_1-interactions-img polygon { vector-effect: non-scaling-stroke; }
</style>
</svg>
