<?xml version="1.0" encoding="UTF-8"?>
<svg id="g-Map3_ClosingClubs-Zeichenfl_che_1-interactions-img" data-name="Ebene 1" xmlns="http://www.w3.org/2000/svg" baseProfile="tiny" version="1.2" viewBox="0 0 600 549">
  <g id="_15-22" data-name="15-22">
    <path d="M488.569,312.673c.002.812-.168,1.615-.499,2.356-.874,1.95-5.07,7.582-5.07,7.582,0,0-4.181-5.632-5.07-7.582-.332-.741-.502-1.544-.499-2.356-.026-3.102,2.467-5.637,5.569-5.663h0c3.102.026,5.595,2.561,5.569,5.662h0Z" fill="#8401cb" stroke="#fff" stroke-miterlimit="10" stroke-width=".5"/>
    <path d="M484.569,229.673c.002.812-.168,1.615-.499,2.356-.874,1.95-5.07,7.582-5.07,7.582,0,0-4.181-5.632-5.07-7.582-.332-.741-.502-1.544-.499-2.356-.026-3.102,2.467-5.637,5.569-5.663h0c3.102.026,5.595,2.561,5.569,5.662h0Z" fill="#8401cb" stroke="#fff" stroke-miterlimit="10" stroke-width=".5"/>
    <g id="_15-20" data-name="15-20">
      <path d="M451.569,286.673c.002.812-.168,1.615-.499,2.356-.874,1.95-5.07,7.582-5.07,7.582,0,0-4.181-5.632-5.07-7.582-.332-.741-.502-1.544-.499-2.356-.026-3.102,2.467-5.637,5.569-5.663h0c3.102.026,5.595,2.561,5.569,5.662h0Z" fill="#8401cb" stroke="#fff" stroke-miterlimit="10" stroke-width=".5"/>
      <path d="M457.569,292.673c.002.812-.168,1.615-.499,2.356-.874,1.95-5.07,7.582-5.07,7.582,0,0-4.181-5.632-5.07-7.582-.332-.741-.502-1.544-.499-2.356-.026-3.102,2.467-5.637,5.569-5.663h0c3.102.026,5.595,2.561,5.569,5.662h0Z" fill="#8401cb" stroke="#fff" stroke-miterlimit="10" stroke-width=".5"/>
      <path d="M493.569,279.673c.002.812-.168,1.615-.499,2.356-.874,1.95-5.07,7.582-5.07,7.582,0,0-4.181-5.632-5.07-7.582-.332-.741-.502-1.544-.499-2.356-.026-3.102,2.467-5.637,5.569-5.663h0c3.102.026,5.595,2.561,5.569,5.662h0Z" fill="#8401cb" stroke="#fff" stroke-miterlimit="10" stroke-width=".5"/>
      <path d="M310.569,189.673c.002.812-.168,1.615-.499,2.356-.874,1.95-5.07,7.582-5.07,7.582,0,0-4.181-5.632-5.07-7.582-.332-.741-.502-1.544-.499-2.356-.026-3.102,2.467-5.637,5.569-5.663h0c3.102.026,5.595,2.561,5.569,5.662h0Z" fill="#8401cb" stroke="#fff" stroke-miterlimit="10" stroke-width=".5"/>
      <path d="M346.569,320.673c.002.812-.168,1.615-.499,2.356-.874,1.95-5.07,7.582-5.07,7.582,0,0-4.181-5.632-5.07-7.582-.332-.741-.502-1.544-.499-2.356-.026-3.102,2.467-5.637,5.569-5.663h0c3.102.026,5.595,2.561,5.569,5.662h0Z" fill="#8401cb" stroke="#fff" stroke-miterlimit="10" stroke-width=".5"/>
      <path d="M420.569,328.673c.002.812-.168,1.615-.499,2.356-.874,1.95-5.07,7.582-5.07,7.582,0,0-4.181-5.632-5.07-7.582-.332-.741-.502-1.544-.499-2.356-.026-3.102,2.467-5.637,5.569-5.663h0c3.102.026,5.595,2.561,5.569,5.662h0Z" fill="#8401cb" stroke="#fff" stroke-miterlimit="10" stroke-width=".5"/>
    </g>
  </g>
  <g id="_10-15" data-name="10-15">
    <path d="M175.569,153.673c.002.812-.168,1.615-.499,2.356-.874,1.95-5.07,7.582-5.07,7.582,0,0-4.181-5.632-5.07-7.582-.332-.741-.502-1.544-.499-2.356-.026-3.102,2.467-5.637,5.569-5.663h0c3.102.026,5.595,2.561,5.569,5.662h0Z" fill="#8401cb" stroke="#fff" stroke-miterlimit="10" stroke-width=".5"/>
    <path d="M238.569,360.673c.002.812-.168,1.615-.499,2.356-.874,1.95-5.07,7.582-5.07,7.582,0,0-4.181-5.632-5.07-7.582-.332-.741-.502-1.544-.499-2.356-.026-3.102,2.467-5.637,5.569-5.663h0c3.102.026,5.595,2.561,5.569,5.662h0Z" fill="#8401cb" stroke="#fff" stroke-miterlimit="10" stroke-width=".5"/>
    <path d="M279.569,145.673c.002.812-.168,1.615-.499,2.356-.874,1.95-5.07,7.582-5.07,7.582,0,0-4.181-5.632-5.07-7.582-.332-.741-.502-1.544-.499-2.356-.026-3.102,2.467-5.637,5.569-5.663h0c3.102.026,5.595,2.561,5.569,5.662h0Z" fill="#8401cb" stroke="#fff" stroke-miterlimit="10" stroke-width=".5"/>
    <path d="M454.569,287.673c.002.812-.168,1.615-.499,2.356-.874,1.95-5.07,7.582-5.07,7.582,0,0-4.181-5.632-5.07-7.582-.332-.741-.502-1.544-.499-2.356-.026-3.102,2.467-5.637,5.569-5.663h0c3.102.026,5.595,2.561,5.569,5.662h0Z" fill="#8401cb" stroke="#fff" stroke-miterlimit="10" stroke-width=".5"/>
    <path d="M361.569,270.673c.002.812-.168,1.615-.499,2.356-.874,1.95-5.07,7.582-5.07,7.582,0,0-4.181-5.632-5.07-7.582-.332-.741-.502-1.544-.499-2.356-.026-3.102,2.467-5.637,5.569-5.663h0c3.102.026,5.595,2.561,5.569,5.662h0Z" fill="#8401cb" stroke="#fff" stroke-miterlimit="10" stroke-width=".5"/>
    <path d="M361.569,270.673c.002.812-.168,1.615-.499,2.356-.874,1.95-5.07,7.582-5.07,7.582,0,0-4.181-5.632-5.07-7.582-.332-.741-.502-1.544-.499-2.356-.026-3.102,2.467-5.637,5.569-5.663h0c3.102.026,5.595,2.561,5.569,5.662h0Z" fill="#8401cb" stroke="#fff" stroke-miterlimit="10" stroke-width=".5"/>
    <path d="M441.569,283.673c.002.812-.168,1.615-.499,2.356-.874,1.95-5.07,7.582-5.07,7.582,0,0-4.181-5.632-5.07-7.582-.332-.741-.502-1.544-.499-2.356-.026-3.102,2.467-5.637,5.569-5.663h0c3.102.026,5.595,2.561,5.569,5.662h0Z" fill="#8401cb" stroke="#fff" stroke-miterlimit="10" stroke-width=".5"/>
    <path d="M271.569,159.673c.002.812-.168,1.615-.499,2.356-.874,1.95-5.07,7.582-5.07,7.582,0,0-4.181-5.632-5.07-7.582-.332-.741-.502-1.544-.499-2.356-.026-3.102,2.467-5.637,5.569-5.663h0c3.102.026,5.595,2.561,5.569,5.662h0Z" fill="#8401cb" stroke="#fff" stroke-miterlimit="10" stroke-width=".5"/>
    <path d="M342.569,259.673c.002.812-.168,1.615-.499,2.356-.874,1.95-5.07,7.582-5.07,7.582,0,0-4.181-5.632-5.07-7.582-.332-.741-.502-1.544-.499-2.356-.026-3.102,2.467-5.637,5.569-5.663h0c3.102.026,5.595,2.561,5.569,5.662h0Z" fill="#8401cb" stroke="#fff" stroke-miterlimit="10" stroke-width=".5"/>
    <path d="M308.569,96.673c.002.812-.168,1.615-.499,2.356-.874,1.95-5.07,7.582-5.07,7.582,0,0-4.181-5.632-5.07-7.582-.332-.741-.502-1.544-.499-2.356-.026-3.102,2.467-5.637,5.569-5.663h0c3.102.026,5.595,2.561,5.569,5.662h0Z" fill="#8401cb" stroke="#fff" stroke-miterlimit="10" stroke-width=".5"/>
    <path d="M283.569,183.673c.002.812-.168,1.615-.499,2.356-.874,1.95-5.07,7.582-5.07,7.582,0,0-4.181-5.632-5.07-7.582-.332-.741-.502-1.544-.499-2.356-.026-3.102,2.467-5.637,5.569-5.663h0c3.102.026,5.595,2.561,5.569,5.662h0Z" fill="#8401cb" stroke="#fff" stroke-miterlimit="10" stroke-width=".5"/>
    <path d="M371.569,414.673c.002.812-.168,1.615-.499,2.356-.874,1.95-5.07,7.582-5.07,7.582,0,0-4.181-5.632-5.07-7.582-.332-.741-.502-1.544-.499-2.356-.026-3.102,2.467-5.637,5.569-5.663h0c3.102.026,5.595,2.561,5.569,5.662h0Z" fill="#8401cb" stroke="#fff" stroke-miterlimit="10" stroke-width=".5"/>
    <path d="M243.569,238.673c.002.812-.168,1.615-.499,2.356-.874,1.95-5.07,7.582-5.07,7.582,0,0-4.181-5.632-5.07-7.582-.332-.741-.502-1.544-.499-2.356-.026-3.102,2.467-5.637,5.569-5.663h0c3.102.026,5.595,2.561,5.569,5.662h0Z" fill="#8401cb" stroke="#fff" stroke-miterlimit="10" stroke-width=".5"/>
    <path d="M276.569,167.673c.002.812-.168,1.615-.499,2.356-.874,1.95-5.07,7.582-5.07,7.582,0,0-4.181-5.632-5.07-7.582-.332-.741-.502-1.544-.499-2.356-.026-3.102,2.467-5.637,5.569-5.663h0c3.102.026,5.595,2.561,5.569,5.662h0Z" fill="#8401cb" stroke="#fff" stroke-miterlimit="10" stroke-width=".5"/>
    <path d="M402.569,197.673c.002.812-.168,1.615-.499,2.356-.874,1.95-5.07,7.582-5.07,7.582,0,0-4.181-5.632-5.07-7.582-.332-.741-.502-1.544-.499-2.356-.026-3.102,2.467-5.637,5.569-5.663h0c3.102.026,5.595,2.561,5.569,5.662h0Z" fill="#8401cb" stroke="#fff" stroke-miterlimit="10" stroke-width=".5"/>
  </g>
  <g id="_05-10" data-name="05-10">
    <path d="M188.569,321.673c.002.812-.168,1.615-.499,2.356-.874,1.95-5.07,7.582-5.07,7.582,0,0-4.181-5.632-5.07-7.582-.332-.741-.502-1.544-.499-2.356-.026-3.102,2.467-5.637,5.569-5.663h0c3.102.026,5.595,2.561,5.569,5.662h0Z" fill="#8401cb" stroke="#fff" stroke-miterlimit="10" stroke-width=".5"/>
    <path d="M406.569,313.673c.002.812-.168,1.615-.499,2.356-.874,1.95-5.07,7.582-5.07,7.582,0,0-4.181-5.632-5.07-7.582-.332-.741-.502-1.544-.499-2.356-.026-3.102,2.467-5.637,5.569-5.663h0c3.102.026,5.595,2.561,5.569,5.662h0Z" fill="#8401cb" stroke="#fff" stroke-miterlimit="10" stroke-width=".5"/>
  </g>
  <g id="_00-05" data-name="00-05">
    <path d="M395.569,263.673c.002.812-.168,1.615-.499,2.356-.874,1.95-5.07,7.582-5.07,7.582,0,0-4.181-5.632-5.07-7.582-.332-.741-.502-1.544-.499-2.356-.026-3.102,2.467-5.637,5.569-5.663h0c3.102.026,5.595,2.561,5.569,5.662h0Z" fill="#8401cb" stroke="#fff" stroke-miterlimit="10" stroke-width=".5"/>
    <path d="M282.569,179.673c.002.812-.168,1.615-.499,2.356-.874,1.95-5.07,7.582-5.07,7.582,0,0-4.181-5.632-5.07-7.582-.332-.741-.502-1.544-.499-2.356-.026-3.102,2.467-5.637,5.569-5.663h0c3.102.026,5.595,2.561,5.569,5.662h0Z" fill="#8401cb" stroke="#fff" stroke-miterlimit="10" stroke-width=".5"/>
  </g>
  <g id="_95-00" data-name="95-00">
    <path d="M281.569,179.673c.002.812-.168,1.615-.499,2.356-.874,1.95-5.07,7.582-5.07,7.582,0,0-4.181-5.632-5.07-7.582-.332-.741-.502-1.544-.499-2.356-.026-3.102,2.467-5.637,5.569-5.663h0c3.102.026,5.595,2.561,5.569,5.662h0Z" fill="#8401cb" stroke="#fff" stroke-miterlimit="10" stroke-width=".5"/>
    <path d="M295.569,202.673c.002.812-.168,1.615-.499,2.356-.874,1.95-5.07,7.582-5.07,7.582,0,0-4.181-5.632-5.07-7.582-.332-.741-.502-1.544-.499-2.356-.026-3.102,2.467-5.637,5.569-5.663h0c3.102.026,5.595,2.561,5.569,5.662h0Z" fill="#8401cb" stroke="#fff" stroke-miterlimit="10" stroke-width=".5"/>
    <path d="M246.569,163.673c.002.812-.168,1.615-.499,2.356-.874,1.95-5.07,7.582-5.07,7.582,0,0-4.181-5.632-5.07-7.582-.332-.741-.502-1.544-.499-2.356-.026-3.102,2.467-5.637,5.569-5.663h0c3.102.026,5.595,2.561,5.569,5.662h0Z" fill="#8401cb" stroke="#fff" stroke-miterlimit="10" stroke-width=".5"/>
    <path d="M338.569,249.673c.002.812-.168,1.615-.499,2.356-.874,1.95-5.07,7.582-5.07,7.582,0,0-4.181-5.632-5.07-7.582-.332-.741-.502-1.544-.499-2.356-.026-3.102,2.467-5.637,5.569-5.663h0c3.102.026,5.595,2.561,5.569,5.662h0Z" fill="#8401cb" stroke="#fff" stroke-miterlimit="10" stroke-width=".5"/>
    <path d="M283.569,200.673c.002.812-.168,1.615-.499,2.356-.874,1.95-5.07,7.582-5.07,7.582,0,0-4.181-5.632-5.07-7.582-.332-.741-.502-1.544-.499-2.356-.026-3.102,2.467-5.637,5.569-5.663h0c3.102.026,5.595,2.561,5.569,5.662h0Z" fill="#8401cb" stroke="#fff" stroke-miterlimit="10" stroke-width=".5"/>
    <path d="M229.569,266.673c.002.812-.168,1.615-.499,2.356-.874,1.95-5.07,7.582-5.07,7.582,0,0-4.181-5.632-5.07-7.582-.332-.741-.502-1.544-.499-2.356-.026-3.102,2.467-5.637,5.569-5.663h0c3.102.026,5.595,2.561,5.569,5.662h0Z" fill="#8401cb" stroke="#fff" stroke-miterlimit="10" stroke-width=".5"/>
    <path d="M228.569,203.673c.002.812-.168,1.615-.499,2.356-.874,1.95-5.07,7.582-5.07,7.582,0,0-4.181-5.632-5.07-7.582-.332-.741-.502-1.544-.499-2.356-.026-3.102,2.467-5.637,5.569-5.663h0c3.102.026,5.595,2.561,5.569,5.662h0Z" fill="#8401cb" stroke="#fff" stroke-miterlimit="10" stroke-width=".5"/>
    <path d="M276.569,170.673c.002.812-.168,1.615-.499,2.356-.874,1.95-5.07,7.582-5.07,7.582,0,0-4.181-5.632-5.07-7.582-.332-.741-.502-1.544-.499-2.356-.026-3.102,2.467-5.637,5.569-5.663h0c3.102.026,5.595,2.561,5.569,5.662h0Z" fill="#8401cb" stroke="#fff" stroke-miterlimit="10" stroke-width=".5"/>
  </g>
  <g id="_90-95" data-name="90-95">
    <path d="M325.569,263.673c.002.812-.168,1.615-.499,2.356-.874,1.95-5.07,7.582-5.07,7.582,0,0-4.181-5.632-5.07-7.582-.332-.741-.502-1.544-.499-2.356-.026-3.102,2.467-5.637,5.569-5.663h0c3.102.026,5.595,2.561,5.569,5.662h0Z" fill="#8401cb" stroke="#fff" stroke-miterlimit="10" stroke-width=".5"/>
    <path d="M336.569,268.673c.002.812-.168,1.615-.499,2.356-.874,1.95-5.07,7.582-5.07,7.582,0,0-4.181-5.632-5.07-7.582-.332-.741-.502-1.544-.499-2.356-.026-3.102,2.467-5.637,5.569-5.663h0c3.102.026,5.595,2.561,5.569,5.662h0Z" fill="#8401cb" stroke="#fff" stroke-miterlimit="10" stroke-width=".5"/>
    <path d="M289.569,256.673c.002.812-.168,1.615-.499,2.356-.874,1.95-5.07,7.582-5.07,7.582,0,0-4.181-5.632-5.07-7.582-.332-.741-.502-1.544-.499-2.356-.026-3.102,2.467-5.637,5.569-5.663h0c3.102.026,5.595,2.561,5.569,5.662h0Z" fill="#8401cb" stroke="#fff" stroke-miterlimit="10" stroke-width=".5"/>
    <path d="M237.569,263.673c.002.812-.168,1.615-.499,2.356-.874,1.95-5.07,7.582-5.07,7.582,0,0-4.181-5.632-5.07-7.582-.332-.741-.502-1.544-.499-2.356-.026-3.102,2.467-5.637,5.569-5.663h0c3.102.026,5.595,2.561,5.569,5.662h0Z" fill="#8401cb" stroke="#fff" stroke-miterlimit="10" stroke-width=".5"/>
    <path d="M137.569,384.673c.002.812-.168,1.615-.499,2.356-.874,1.95-5.07,7.582-5.07,7.582,0,0-4.181-5.632-5.07-7.582-.332-.741-.502-1.544-.499-2.356-.026-3.102,2.467-5.637,5.569-5.663h0c3.102.026,5.595,2.561,5.569,5.662h0Z" fill="#8401cb" stroke="#fff" stroke-miterlimit="10" stroke-width=".5"/>
  </g>
<style>
#g-Map3_ClosingClubs-Zeichenfl_che_1-interactions-img rect, #g-Map3_ClosingClubs-Zeichenfl_che_1-interactions-img circle, #g-Map3_ClosingClubs-Zeichenfl_che_1-interactions-img path, #g-Map3_ClosingClubs-Zeichenfl_che_1-interactions-img line, #g-Map3_ClosingClubs-Zeichenfl_che_1-interactions-img polyline, #g-Map3_ClosingClubs-Zeichenfl_che_1-interactions-img polygon { vector-effect: non-scaling-stroke; }
</style>
</svg>
